<mxfile host="app.diagrams.net" modified="2021-01-17T04:20:41.900Z" agent="5.0 (Windows NT 10.0; Win64; x64) AppleWebKit/537.36 (KHTML, like Gecko) Chrome/87.0.4280.141 Safari/537.36" etag="-GulmBNyA94XpYWpm3js" version="14.2.4" type="github">
  <diagram name="Page-1" id="7e0a89b8-554c-2b80-1dc8-d5c74ca68de4">
    <mxGraphModel dx="289" dy="154" grid="1" gridSize="10" guides="1" tooltips="1" connect="1" arrows="1" fold="1" page="1" pageScale="1" pageWidth="1100" pageHeight="850" background="#ffffff" math="0" shadow="0">
      <root>
        <mxCell id="0" />
        <mxCell id="1" parent="0" />
        <mxCell id="MZTKih3VrRNRA9cfkAVB-4" value="" style="edgeStyle=orthogonalEdgeStyle;rounded=0;orthogonalLoop=1;jettySize=auto;html=1;endArrow=none;endFill=0;" parent="1" source="MZTKih3VrRNRA9cfkAVB-1" target="MZTKih3VrRNRA9cfkAVB-3" edge="1">
          <mxGeometry relative="1" as="geometry" />
        </mxCell>
        <mxCell id="MZTKih3VrRNRA9cfkAVB-27" style="edgeStyle=orthogonalEdgeStyle;rounded=0;orthogonalLoop=1;jettySize=auto;html=1;entryX=0.5;entryY=1;entryDx=0;entryDy=0;endArrow=none;endFill=0;" parent="1" source="MZTKih3VrRNRA9cfkAVB-1" target="MZTKih3VrRNRA9cfkAVB-26" edge="1">
          <mxGeometry relative="1" as="geometry">
            <Array as="points">
              <mxPoint x="475" y="280" />
            </Array>
          </mxGeometry>
        </mxCell>
        <mxCell id="MZTKih3VrRNRA9cfkAVB-1" value="&lt;span style=&quot;color: rgb(32 , 33 , 36) ; font-family: &amp;#34;arial&amp;#34; , sans-serif ; font-size: 16px ; text-align: left ; background-color: rgb(255 , 255 , 255)&quot;&gt;4.5Ω&lt;/span&gt;" style="pointerEvents=1;verticalLabelPosition=bottom;shadow=0;dashed=0;align=center;html=1;verticalAlign=top;shape=mxgraph.electrical.resistors.resistor_2;" parent="1" vertex="1">
          <mxGeometry x="360" y="270" width="100" height="20" as="geometry" />
        </mxCell>
        <mxCell id="MZTKih3VrRNRA9cfkAVB-17" style="edgeStyle=orthogonalEdgeStyle;rounded=0;orthogonalLoop=1;jettySize=auto;html=1;endArrow=none;endFill=0;entryX=0;entryY=0.5;entryDx=0;entryDy=0;entryPerimeter=0;" parent="1" target="MZTKih3VrRNRA9cfkAVB-6" edge="1">
          <mxGeometry relative="1" as="geometry">
            <mxPoint x="220" y="90" as="targetPoint" />
            <mxPoint x="250" y="280" as="sourcePoint" />
            <Array as="points">
              <mxPoint x="250" y="280" />
              <mxPoint x="160" y="280" />
              <mxPoint x="160" y="90" />
            </Array>
          </mxGeometry>
        </mxCell>
        <mxCell id="MZTKih3VrRNRA9cfkAVB-3" value="" style="verticalLabelPosition=bottom;shadow=0;dashed=0;align=center;fillColor=#000000;html=1;verticalAlign=top;strokeWidth=1;shape=mxgraph.electrical.miscellaneous.monocell_battery;rotation=-180;" parent="1" vertex="1">
          <mxGeometry x="250" y="250" width="100" height="60" as="geometry" />
        </mxCell>
        <mxCell id="MZTKih3VrRNRA9cfkAVB-12" style="edgeStyle=orthogonalEdgeStyle;rounded=0;orthogonalLoop=1;jettySize=auto;html=1;endArrow=none;endFill=0;" parent="1" source="MZTKih3VrRNRA9cfkAVB-5" edge="1">
          <mxGeometry relative="1" as="geometry">
            <mxPoint x="220" y="100" as="targetPoint" />
          </mxGeometry>
        </mxCell>
        <mxCell id="MZTKih3VrRNRA9cfkAVB-15" style="edgeStyle=orthogonalEdgeStyle;rounded=0;orthogonalLoop=1;jettySize=auto;html=1;endArrow=none;endFill=0;" parent="1" source="MZTKih3VrRNRA9cfkAVB-5" edge="1">
          <mxGeometry relative="1" as="geometry">
            <mxPoint x="380" y="90" as="targetPoint" />
          </mxGeometry>
        </mxCell>
        <mxCell id="MZTKih3VrRNRA9cfkAVB-5" value="&lt;span style=&quot;color: rgb(32 , 33 , 36) ; font-family: &amp;#34;arial&amp;#34; , sans-serif ; font-size: 16px ; text-align: left ; background-color: rgb(255 , 255 , 255)&quot;&gt;15Ω&lt;/span&gt;" style="pointerEvents=1;verticalLabelPosition=bottom;shadow=0;dashed=0;align=center;html=1;verticalAlign=top;shape=mxgraph.electrical.resistors.resistor_2;" parent="1" vertex="1">
          <mxGeometry x="250" y="30" width="100" height="20" as="geometry" />
        </mxCell>
        <mxCell id="MZTKih3VrRNRA9cfkAVB-28" style="edgeStyle=orthogonalEdgeStyle;rounded=0;orthogonalLoop=1;jettySize=auto;html=1;entryX=0.5;entryY=0;entryDx=0;entryDy=0;endArrow=none;endFill=0;" parent="1" source="MZTKih3VrRNRA9cfkAVB-6" target="MZTKih3VrRNRA9cfkAVB-26" edge="1">
          <mxGeometry relative="1" as="geometry" />
        </mxCell>
        <mxCell id="MZTKih3VrRNRA9cfkAVB-6" value="&lt;span style=&quot;color: rgb(32 , 33 , 36) ; font-family: &amp;#34;arial&amp;#34; , sans-serif ; font-size: 16px ; text-align: left ; background-color: rgb(255 , 255 , 255)&quot;&gt;30Ω&lt;/span&gt;" style="pointerEvents=1;verticalLabelPosition=bottom;shadow=0;dashed=0;align=center;html=1;verticalAlign=top;shape=mxgraph.electrical.resistors.resistor_2;" parent="1" vertex="1">
          <mxGeometry x="250" y="80" width="100" height="20" as="geometry" />
        </mxCell>
        <mxCell id="MZTKih3VrRNRA9cfkAVB-11" style="edgeStyle=orthogonalEdgeStyle;rounded=0;orthogonalLoop=1;jettySize=auto;html=1;endArrow=none;endFill=0;" parent="1" source="MZTKih3VrRNRA9cfkAVB-7" edge="1">
          <mxGeometry relative="1" as="geometry">
            <mxPoint x="220" y="90" as="targetPoint" />
          </mxGeometry>
        </mxCell>
        <mxCell id="MZTKih3VrRNRA9cfkAVB-16" style="edgeStyle=orthogonalEdgeStyle;rounded=0;orthogonalLoop=1;jettySize=auto;html=1;endArrow=none;endFill=0;" parent="1" source="MZTKih3VrRNRA9cfkAVB-7" edge="1">
          <mxGeometry relative="1" as="geometry">
            <mxPoint x="380" y="90" as="targetPoint" />
          </mxGeometry>
        </mxCell>
        <mxCell id="MZTKih3VrRNRA9cfkAVB-7" value="&lt;div style=&quot;text-align: left ; font-size: 11px&quot;&gt;&lt;/div&gt;&lt;span style=&quot;color: rgb(32 , 33 , 36) ; font-family: &amp;#34;arial&amp;#34; , sans-serif ; font-size: 16px ; text-align: left ; background-color: rgb(255 , 255 , 255)&quot;&gt;10Ω&lt;/span&gt;" style="pointerEvents=1;verticalLabelPosition=bottom;shadow=0;dashed=0;align=center;html=1;verticalAlign=top;shape=mxgraph.electrical.resistors.resistor_2;" parent="1" vertex="1">
          <mxGeometry x="250" y="140" width="100" height="20" as="geometry" />
        </mxCell>
        <mxCell id="MZTKih3VrRNRA9cfkAVB-23" style="edgeStyle=orthogonalEdgeStyle;rounded=0;orthogonalLoop=1;jettySize=auto;html=1;endArrow=none;endFill=0;" parent="1" source="MZTKih3VrRNRA9cfkAVB-18" edge="1">
          <mxGeometry relative="1" as="geometry">
            <mxPoint x="245" y="280" as="targetPoint" />
          </mxGeometry>
        </mxCell>
        <mxCell id="MZTKih3VrRNRA9cfkAVB-24" style="edgeStyle=orthogonalEdgeStyle;rounded=0;orthogonalLoop=1;jettySize=auto;html=1;endArrow=none;endFill=0;" parent="1" source="MZTKih3VrRNRA9cfkAVB-18" edge="1">
          <mxGeometry relative="1" as="geometry">
            <mxPoint x="360" y="280" as="targetPoint" />
            <Array as="points">
              <mxPoint x="245" y="190" />
              <mxPoint x="360" y="190" />
            </Array>
          </mxGeometry>
        </mxCell>
        <mxCell id="MZTKih3VrRNRA9cfkAVB-18" value="" style="verticalLabelPosition=bottom;shadow=0;dashed=0;align=center;html=1;verticalAlign=top;strokeWidth=1;shape=ellipse;perimeter=ellipsePerimeter;" parent="1" vertex="1">
          <mxGeometry x="230" y="220" width="30" height="30" as="geometry" />
        </mxCell>
        <mxCell id="MZTKih3VrRNRA9cfkAVB-26" value="" style="verticalLabelPosition=bottom;shadow=0;dashed=0;align=center;html=1;verticalAlign=top;strokeWidth=1;shape=ellipse;perimeter=ellipsePerimeter;" parent="1" vertex="1">
          <mxGeometry x="460" y="170" width="30" height="30" as="geometry" />
        </mxCell>
        <mxCell id="MZTKih3VrRNRA9cfkAVB-32" value="2" style="text;html=1;align=center;verticalAlign=middle;resizable=0;points=[];autosize=1;" parent="1" vertex="1">
          <mxGeometry x="465" y="175" width="20" height="20" as="geometry" />
        </mxCell>
        <mxCell id="MZTKih3VrRNRA9cfkAVB-33" value="1" style="text;html=1;align=center;verticalAlign=middle;resizable=0;points=[];autosize=1;" parent="1" vertex="1">
          <mxGeometry x="235" y="225" width="20" height="20" as="geometry" />
        </mxCell>
        <mxCell id="MZTKih3VrRNRA9cfkAVB-34" value="&lt;font style=&quot;font-size: 16px&quot;&gt;12V-0.5&lt;span style=&quot;color: rgb(32 , 33 , 36) ; font-family: &amp;#34;arial&amp;#34; , sans-serif ; text-align: left ; background-color: rgb(255 , 255 , 255)&quot;&gt;&lt;font style=&quot;font-size: 16px&quot;&gt;Ω&lt;/font&gt;&lt;/span&gt;&lt;/font&gt;" style="text;html=1;align=center;verticalAlign=middle;resizable=0;points=[];autosize=1;" parent="1" vertex="1">
          <mxGeometry x="260" y="310" width="80" height="20" as="geometry" />
        </mxCell>
      </root>
    </mxGraphModel>
  </diagram>
</mxfile>
